<!DOCTYPE svg PUBLIC "-//W3C//DTD SVG 1.1//EN" "http://www.w3.org/Graphics/SVG/1.1/DTD/svg11.dtd">
<!-- Uploaded to: SVG Repo, www.svgrepo.com, Transformed by: SVG Repo Mixer Tools -->
<svg fill="#2a2c2b" width="800px" height="800px" viewBox="-6.4 -6.4 76.80 76.80" style="fill-rule:evenodd;clip-rule:evenodd;stroke-linejoin:round;stroke-miterlimit:2;" version="1.1" xml:space="preserve" xmlns="http://www.w3.org/2000/svg" xmlns:serif="http://www.serif.com/" xmlns:xlink="http://www.w3.org/1999/xlink" stroke="#2a2c2b">
<g id="SVGRepo_bgCarrier" stroke-width="0">
<rect x="-6.4" y="-6.4" width="76.80" height="76.80" rx="38.4" fill="#52ad9e" strokewidth="0"/>
</g>
<g id="SVGRepo_tracerCarrier" stroke-linecap="round" stroke-linejoin="round"/>
<g id="SVGRepo_iconCarrier"> <g transform="matrix(1,0,0,1,-192,-288)"> <g id="Icon"> <path d="M206.275,343.594L206.275,343.761C206.275,344.861 206.712,345.917 207.49,346.695C208.268,347.473 209.323,347.91 210.424,347.91C216.812,347.91 231.227,347.91 237.615,347.91C238.715,347.91 239.77,347.473 240.548,346.695C241.327,345.917 241.764,344.861 241.764,343.761L241.764,343.594C241.764,343.042 241.316,342.594 240.764,342.594L207.275,342.594C206.723,342.594 206.275,343.042 206.275,343.594Z" style="fill:#050505;"/> <path d="M238.479,342.594C238.489,342.651 238.494,342.709 238.494,342.769L238.494,342.937C238.494,344.037 238.057,345.092 237.279,345.87C236.501,346.649 235.446,347.086 234.345,347.086L207.942,347.086C208.654,347.618 209.524,347.91 210.424,347.91C216.812,347.91 231.227,347.91 237.615,347.91C238.715,347.91 239.77,347.473 240.548,346.695C241.327,345.917 241.764,344.861 241.764,343.761L241.764,343.594C241.764,343.042 241.316,342.594 240.764,342.594L238.479,342.594Z" style="fill:#0f1a12;"/> <path d="M248.583,334.818L248.583,334.776C248.566,334.24 248.128,333.809 247.587,333.807L200.459,333.628C200.188,333.627 199.928,333.735 199.739,333.93C199.55,334.124 199.447,334.386 199.455,334.657C199.455,334.657 199.471,335.208 199.496,336.037C199.635,340.803 203.538,344.594 208.306,344.594C216.956,344.594 231.026,344.594 239.769,344.594C244.637,344.594 248.583,340.648 248.583,335.78C248.583,335.243 248.583,334.885 248.583,334.818Z" style="fill:#198661;"/> <path d="M247.587,333.807L243.247,333.807C243.788,333.809 244.227,334.24 244.243,334.776L244.244,334.818C244.244,334.885 244.244,335.243 244.244,335.78C244.244,340.648 240.297,344.594 235.43,344.594L239.769,344.594C244.637,344.594 248.583,340.648 248.583,335.78C248.583,335.243 248.583,334.885 248.583,334.818L248.583,334.776C248.566,334.24 248.128,333.809 247.587,333.807Z" style="fill:#3bba3b;"/> <path d="M201.046,321.538C198.187,323.022 196.3,325.752 196.3,328.848C196.3,333.486 200.579,337.327 205.93,337.327C208.237,337.327 210.352,336.611 212.003,335.428C213.655,336.611 215.77,337.327 218.077,337.327C220.384,337.327 222.499,336.611 224.15,335.428C225.802,336.611 227.917,337.327 230.224,337.327C232.531,337.327 234.646,336.611 236.297,335.428C237.949,336.611 240.064,337.327 242.371,337.327C247.722,337.327 252,333.486 252,328.848C252,325.747 250.106,323.012 247.24,321.531C243.3,314.219 234.753,309.12 224.824,309.12L223.466,309.12C213.534,309.12 204.986,314.221 201.046,321.538Z" style="fill:#d0e5a4;"/> <path d="M223.828,309.12C230.776,310.836 236.474,315.13 239.484,320.716C242.35,322.197 244.244,324.932 244.244,328.033C244.244,331.814 241.401,335.065 237.45,336.138C238.887,336.891 240.571,337.327 242.371,337.327C247.722,337.327 252,333.486 252,328.848C252,325.747 250.106,323.012 247.24,321.531C243.3,314.219 234.753,309.12 224.824,309.12L223.828,309.12Z" style="fill:#15b259;"/> <path d="M223.15,316.568L223.15,326.635C223.15,327.187 223.598,327.635 224.15,327.635C224.702,327.635 225.15,327.187 225.15,326.635L225.15,316.568C225.15,316.016 224.702,315.568 224.15,315.568C223.598,315.568 223.15,316.016 223.15,316.568Z" style="fill:#15b259;"/> <g transform="matrix(1,0,0,1,-9.28912,1.13687e-13)"> <path d="M223.15,316.568L223.15,326.635C223.15,327.187 223.598,327.635 224.15,327.635C224.702,327.635 225.15,327.187 225.15,326.635L225.15,316.568C225.15,316.016 224.702,315.568 224.15,315.568C223.598,315.568 223.15,316.016 223.15,316.568Z" style="fill:#15b259;"/> </g> <g transform="matrix(1,0,0,1,9.28912,0.207994)"> <path d="M223.15,316.568L223.15,326.635C223.15,327.187 223.598,327.635 224.15,327.635C224.702,327.635 225.15,327.187 225.15,326.635L225.15,316.568C225.15,316.016 224.702,315.568 224.15,315.568C223.598,315.568 223.15,316.016 223.15,316.568Z" style="fill:#15b259;"/> </g> <g transform="matrix(-1.02196,-1.67157e-16,1.22235e-16,-1.34718,248.058,323.528)"> <path d="M31.042,15.081L31.7,16.397C31.898,16.795 31.898,17.205 31.7,17.603L30.383,20.235C30.131,20.74 30.131,21.26 30.383,21.765C30.673,22.344 31.042,23.081 31.042,23.081C31.15,23.299 31.668,23.439 32.197,23.394C32.726,23.35 33.067,23.137 32.958,22.919L32.3,21.603C32.102,21.205 32.102,20.795 32.3,20.397L33.617,17.765C33.869,17.26 33.869,16.74 33.617,16.235C33.327,15.656 32.958,14.919 32.958,14.919C32.85,14.701 32.332,14.561 31.803,14.606C31.274,14.65 30.933,14.863 31.042,15.081Z" style="fill:#198661;"/> </g> <g transform="matrix(-1.02196,-1.67157e-16,1.22235e-16,-1.34718,256.697,323.528)"> <path d="M31.042,15.081L31.7,16.397C31.898,16.795 31.898,17.205 31.7,17.603L30.383,20.235C30.131,20.74 30.131,21.26 30.383,21.765C30.673,22.344 31.042,23.081 31.042,23.081C31.15,23.299 31.668,23.439 32.197,23.394C32.726,23.35 33.067,23.137 32.958,22.919L32.3,21.603C32.102,21.205 32.102,20.795 32.3,20.397L33.617,17.765C33.869,17.26 33.869,16.74 33.617,16.235C33.327,15.656 32.958,14.919 32.958,14.919C32.85,14.701 32.332,14.561 31.803,14.606C31.274,14.65 30.933,14.863 31.042,15.081Z" style="fill:#198661;"/> </g> <g transform="matrix(-1.02196,-1.67157e-16,1.22235e-16,-1.34718,265.647,323.528)"> <path d="M31.042,15.081L31.7,16.397C31.898,16.795 31.898,17.205 31.7,17.603L30.383,20.235C30.131,20.74 30.131,21.26 30.383,21.765C30.673,22.344 31.042,23.081 31.042,23.081C31.15,23.299 31.668,23.439 32.197,23.394C32.726,23.35 33.067,23.137 32.958,22.919L32.3,21.603C32.102,21.205 32.102,20.795 32.3,20.397L33.617,17.765C33.869,17.26 33.869,16.74 33.617,16.235C33.327,15.656 32.958,14.919 32.958,14.919C32.85,14.701 32.332,14.561 31.803,14.606C31.274,14.65 30.933,14.863 31.042,15.081Z" style="fill:#198661;"/> </g> </g> </g> </g>
</svg>