<!DOCTYPE svg PUBLIC "-//W3C//DTD SVG 1.1//EN" "http://www.w3.org/Graphics/SVG/1.1/DTD/svg11.dtd">
<!-- Uploaded to: SVG Repo, www.svgrepo.com, Transformed by: SVG Repo Mixer Tools -->
<svg viewBox="0 0 600 600" version="1.1" id="svg9724" sodipodi:docname="video.svg" inkscape:version="1.2.2 (1:1.2.2+202212051550+b0a8486541)" width="800px" height="800px" xmlns:inkscape="http://www.inkscape.org/namespaces/inkscape" xmlns:sodipodi="http://sodipodi.sourceforge.net/DTD/sodipodi-0.dtd" xmlns="http://www.w3.org/2000/svg" xmlns:svg="http://www.w3.org/2000/svg" fill="#000000">
<g id="SVGRepo_bgCarrier" stroke-width="0"/>
<g id="SVGRepo_tracerCarrier" stroke-linecap="round" stroke-linejoin="round"/>
<g id="SVGRepo_iconCarrier"> <defs id="defs9728"/> <sodipodi:namedview id="namedview9726" pagecolor="#ffffff" bordercolor="#666666" borderopacity="1.0" inkscape:showpageshadow="2" inkscape:pageopacity="0.0" inkscape:pagecheckerboard="0" inkscape:deskcolor="#d1d1d1" showgrid="true" inkscape:zoom="0.84118632" inkscape:cx="184.85798" inkscape:cy="354.85599" inkscape:window-width="1920" inkscape:window-height="1009" inkscape:window-x="0" inkscape:window-y="1080" inkscape:window-maximized="1" inkscape:current-layer="svg9724" showguides="true"> <inkscape:grid type="xygrid" id="grid9972" originx="0" originy="0"/> <sodipodi:guide position="300,360" orientation="1,0" id="guide1208" inkscape:locked="false"/> </sodipodi:namedview> <path style="stroke-width:1.05103;color:#2ea842;fill:#2ea842;stroke-linecap:round;stroke-linejoin:round;-inkscape-stroke:none;paint-order:stroke fill markers" d="m 300.60937,-12.792969 c -173.60599,0 -315.214839,141.724839 -315.214839,315.404299 0,173.67945 141.608849,315.40429 315.214839,315.40429 173.606,0 315.21485,-141.72484 315.21485,-315.40429 0,-173.67946 -141.60885,-315.404299 -315.21485,-315.404299 z m 0,84.082031 c 128.13278,10e-7 231.13086,103.052738 231.13086,231.322268 0,128.26952 -102.99808,231.32226 -231.13086,231.32226 C 172.4766,533.93359 69.476562,430.88085 69.476562,302.61133 69.476563,174.3418 172.4766,71.289062 300.60937,71.289062 Z" id="path390" transform="matrix(0.95173205,0,0,0.95115787,13.901174,12.168794)"/> <path style="color:#2ea842;fill:#1d9a32;stroke-linejoin:round;-inkscape-stroke:none;paint-order:stroke fill markers" d="m -398.20312,-131.11523 c -16.48395,0.26965 -35.23134,4.07707 -52.1504,14.84375 -22.55873,14.35556 -35.28801,36.895201 -41.42382,55.398433 -6.13582,18.503232 -7.98007,35.430567 -9.04883,53.7089845 -2.13752,36.5568355 0.013,79.3192215 2.44726,135.7246125 2.4343,56.40539 3.97483,99.19684 9.25391,135.43359 2.63954,18.11838 5.9374,34.82271 13.64453,52.72852 7.70713,17.90581 22.32937,39.26438 46.04102,51.62304 23.71165,12.35866 49.59532,12.11167 68.6875,8.17383 19.09217,-3.93784 34.67315,-10.80199 51.03711,-19.01562 32.7279,-16.42728 68.68701,-39.67157 116.31836,-69.98243 47.63135,-30.31085 83.91774,-53.04222 112.660152,-75.73242 14.371204,-11.3451 27.190429,-22.55221 38.84375,-38.17969 C -30.239257,157.9819 -19.05412,134.64 -20.207031,107.92578 -21.359943,81.21156 -34.516295,58.918905 -47.472656,44.353516 -60.429017,29.788127 -74.163789,19.72689 -89.458984,9.6621094 -120.04937,-10.467451 -158.15896,-29.987502 -208.22461,-56.082031 c -50.06565,-26.094529 -87.89452,-46.154619 -121.91601,-59.701169 -17.01075,-6.77328 -33.12393,-12.2705 -52.48438,-14.54883 -4.84011,-0.56958 -10.08348,-0.87309 -15.57812,-0.7832 z m 33.08203,148.781246 c 22.40613,10.204773 53.82076,26.297393 93.87109,47.171875 40.04989,20.874254 71.23529,37.409549 92.43359,49.931639 -20.04065,14.30187 -49.68432,33.46176 -87.78711,57.70899 -38.10291,24.24731 -68.01535,42.98677 -89.45898,55.08398 -2.36541,-24.50663 -4.13668,-59.75975 -6.08398,-104.88086 -1.94733,-45.121699 -3.21993,-80.396292 -2.97461,-105.015624 z" id="path343" transform="matrix(0.58387874,0.03211745,-0.03232889,0.58772279,477.39992,239.7183)"/> </g>
</svg>