<!DOCTYPE svg PUBLIC "-//W3C//DTD SVG 1.1//EN" "http://www.w3.org/Graphics/SVG/1.1/DTD/svg11.dtd">

<!-- Uploaded to: SVG Repo, www.svgrepo.com, Transformed by: SVG Repo Mixer Tools -->
<svg fill="#139202" width={18} height={18} viewBox="0 0 1920 1920" xmlns="http://www.w3.org/2000/svg" stroke="#139202">

<g id="SVGRepo_bgCarrier" stroke-width="0"/>

<g id="SVGRepo_tracerCarrier" stroke-linecap="round" stroke-linejoin="round"/>

<g id="SVGRepo_iconCarrier"> <path d="M1740 0c99.24 0 180 80.76 180 180v1560c0 99.24-80.76 180-180 180H180c-99.24 0-180-80.76-180-180V180C0 80.76 80.76 0 180 0h1560Zm-420 1200h480V720h-480v480Zm480 540v-420h-480v480h420c33 0 60-27 60-60ZM720 1200h480V720H720v480Zm0 600h480v-480H720v480Zm-600-600h480V720H120v480Zm480 600v-480H120v420c0 33 27 60 60 60h420Z" fill-rule="evenodd"/> </g>

</svg>