<!DOCTYPE svg PUBLIC "-//W3C//DTD SVG 1.1//EN" "http://www.w3.org/Graphics/SVG/1.1/DTD/svg11.dtd">
<!-- Uploaded to: SVG Repo, www.svgrepo.com, Transformed by: SVG Repo Mixer Tools -->
<svg version="1.1" id="Uploaded to svgrepo.com" xmlns="http://www.w3.org/2000/svg" xmlns:xlink="http://www.w3.org/1999/xlink" width="800px" height="800px" viewBox="0 0 32 32" xml:space="preserve" fill="#000000">
<g id="SVGRepo_bgCarrier" stroke-width="0"/>
<g id="SVGRepo_tracerCarrier" stroke-linecap="round" stroke-linejoin="round"/>
<g id="SVGRepo_iconCarrier"> <style type="text/css"> .stone_een{fill:#146c1a;} </style> <path class="stone_een" d="M14.197,2.113C7.871,2.903,2.796,8.062,2.09,14.398c-0.387,3.47,0.502,6.716,2.248,9.342l-2.059,4.632 c-0.168,0.378-0.086,0.821,0.207,1.113l0.029,0.029c0.293,0.293,0.735,0.375,1.113,0.207l4.632-2.059 c2.626,1.747,5.872,2.635,9.342,2.248c6.336-0.706,11.495-5.782,12.285-12.108C31.029,8.658,23.342,0.971,14.197,2.113z M15,21.5 L15,21.5c0-0.277,0.224-0.5,0.5-0.5H15.5c0.276,0,0.5,0.224,0.5,0.5V21.5c0,0.276-0.224,0.5-0.5,0.5H15.5 C15.224,22,15,21.776,15,21.5z M15,19.5v-2.603c0-0.22,0.178-0.398,0.398-0.398h0.001c1.882,0,3.504-1.443,3.597-3.323 C19.095,11.167,17.488,9.5,15.5,9.5c-1.624,0-2.994,1.113-3.387,2.616c-0.058,0.224-0.254,0.384-0.485,0.384h0 c-0.328,0-0.567-0.311-0.485-0.628c0.52-2.005,2.39-3.471,4.577-3.366c2.119,0.102,3.916,1.725,4.229,3.823 c0.358,2.401-1.247,4.612-3.55,5.081L16,17.491V19.5c0,0.276-0.224,0.5-0.5,0.5H15.5C15.224,20,15,19.776,15,19.5z"/> </g>
</svg>