
<svg version="1.1" id="_x34_" xmlns="http://www.w3.org/2000/svg" xmlns:xlink="http://www.w3.org/1999/xlink" viewBox="0 0 512 512" xml:space="preserve" width="800px" height="800px" fill="#000000">

<g id="SVGRepo_bgCarrier" stroke-width="0"/>

<g id="SVGRepo_tracerCarrier" stroke-linecap="round" stroke-linejoin="round"/>

<g id="SVGRepo_iconCarrier"> <g> <path style="fill:none;" d="M288.094,64.883V41.59H256v21.645C266.887,63.234,277.587,63.825,288.094,64.883z"/> <path style="fill:none;" d="M223.906,64.883c10.507-1.058,21.208-1.648,32.094-1.648V41.59h-32.094V64.883z"/> <g> <g> <polygon style="fill:#26a269;" points="499.497,264.732 414.072,347.532 97.916,347.532 12.503,264.732 "/> <path style="fill:#2ec27e;" d="M512,252.192c0,8.152-6.546,14.698-14.699,14.698H14.698C6.546,266.89,0,260.344,0,252.192 c0-2.143,0.476-4.225,1.369-6.07c0.654-1.607,1.726-3.094,2.916-4.344c2.678-2.619,6.308-4.285,10.414-4.285h482.603 C505.454,237.493,512,244.099,512,252.192z"/> <path style="fill:#3d3846;" d="M498.254,237.493H13.747C19.876,153.35,99.972,84.322,205.3,67.363 c6.129-1.071,12.318-1.905,18.626-2.499c10.473-1.072,21.185-1.607,32.075-1.607c3.511,0,7.022,0.06,10.533,0.178 c1.012,0.06,2.023,0.06,3.035,0.119c2.202,0.06,4.344,0.179,6.486,0.357c3.095,0.179,6.129,0.417,9.105,0.715 c1.012,0.06,1.963,0.119,2.916,0.238c6.308,0.594,12.496,1.428,18.626,2.439v0.06c0.774,0.06,1.547,0.179,2.321,0.357 c2.499,0.416,4.998,0.832,7.498,1.369c3.214,0.595,6.427,1.309,9.641,2.023c6.367,1.428,12.616,3.094,18.804,4.998 c2.321,0.655,4.641,1.369,6.903,2.202c1.131,0.298,2.202,0.654,3.332,1.071c2.618,0.892,5.237,1.785,7.795,2.797 c2.559,0.952,5.118,1.964,7.677,2.975c1.131,0.477,2.261,0.952,3.392,1.428c1.845,0.774,3.749,1.607,5.594,2.44 c0.774,0.357,1.488,0.654,2.261,1.012c2.202,1.071,4.404,2.082,6.605,3.213c3.57,1.726,7.081,3.63,10.533,5.535 c2.261,1.249,4.463,2.499,6.665,3.867c2.142,1.25,4.225,2.499,6.248,3.869c2.083,1.249,4.047,2.558,6.01,3.987 c1.012,0.595,2.023,1.309,2.975,2.023c1.845,1.31,3.63,2.619,5.415,3.928c1.845,1.368,3.63,2.797,5.415,4.225 c1.012,0.774,2.023,1.547,2.975,2.381c1.666,1.368,3.332,2.797,4.939,4.225c2.083,1.844,4.106,3.689,6.129,5.593 c0,0.06,0.06,0.06,0.119,0.119c2.023,1.904,3.987,3.867,5.892,5.891c1.904,1.964,3.808,3.986,5.594,6.07 c1.606,1.785,3.154,3.57,4.641,5.415c3.035,3.75,5.951,7.617,8.688,11.545c0.833,1.131,1.606,2.321,2.38,3.511 c1.19,1.845,2.38,3.689,3.511,5.593c1.25,2.024,2.44,4.106,3.57,6.189c0.179,0.357,0.417,0.774,0.595,1.131 c1.19,2.142,2.261,4.344,3.332,6.546c3.63,7.617,6.605,15.472,8.926,23.505c0.595,1.964,1.071,3.928,1.547,5.891 c0.595,2.5,1.19,5.059,1.606,7.617c0.417,2.202,0.774,4.344,1.071,6.546c0,0.118,0.06,0.238,0.06,0.297 c0.119,0.952,0.238,1.844,0.298,2.797C497.897,233.506,498.135,235.53,498.254,237.493z"/> <g> <path style="fill:#FFFFFF;" d="M88.773,187.187c-5.028,0-10.083-1.688-14.255-5.15c-9.495-7.879-10.805-21.965-2.925-31.46 c21.603-26.033,52.005-46.663,87.918-59.66c11.607-4.203,24.412,1.802,28.611,13.405c4.2,11.603-1.802,24.413-13.405,28.612 c-28.441,10.293-52.21,26.262-68.739,46.179C101.56,184.435,95.19,187.187,88.773,187.187z"/> </g> <g> <rect x="205.3" y="17.615" style="fill:#26a269;" width="18.626" height="60.579"/> <rect x="288.094" y="17.632" style="fill:#26a269;" width="18.611" height="60.59"/> </g> <path style="fill:#26a269;" d="M336.513,20.768c0,11.485-9.402,20.828-20.828,20.828H196.314 c-11.426,0-20.827-9.342-20.827-20.828c0-5.712,2.32-10.89,6.129-14.638C185.425,2.322,190.602,0,196.314,0h119.371 c2.142,0,4.165,0.298,6.07,0.952c6.605,2.023,11.842,7.26,13.865,13.865C336.216,16.662,336.513,18.686,336.513,20.768z"/> </g> <path style="opacity:0.06;fill:#26a269;" d="M512,252.192c0,8.152-6.546,14.698-14.699,14.698h-0.059l-83.191,80.633H256V63.257 c3.511,0,7.022,0.06,10.533,0.178c1.012,0.06,2.023,0.06,3.035,0.119c2.202,0.06,4.344,0.179,6.486,0.357 c3.095,0.179,6.129,0.417,9.105,0.715c1.012,0.06,1.963,0.119,2.916,0.238V41.596H256V0h59.686c2.142,0,4.165,0.298,6.07,0.952 c6.605,2.023,11.842,7.26,13.865,13.865c0.595,1.845,0.893,3.869,0.893,5.951c0,11.485-9.402,20.828-20.828,20.828H306.7v25.708 c0.774,0.119,1.547,0.238,2.321,0.417c2.499,0.416,4.998,0.832,7.498,1.369c3.214,0.595,6.427,1.309,9.641,2.023 c6.367,1.428,12.616,3.094,18.804,4.998c2.321,0.655,4.641,1.369,6.903,2.202c1.131,0.298,2.202,0.654,3.332,1.071 c2.618,0.892,5.237,1.785,7.795,2.797c2.559,0.952,5.118,1.964,7.677,2.975c1.131,0.477,2.261,0.952,3.392,1.428 c1.845,0.774,3.749,1.607,5.594,2.44c0.774,0.357,1.488,0.654,2.261,1.012c2.202,1.071,4.404,2.082,6.605,3.213 c3.57,1.726,7.081,3.63,10.533,5.535c2.261,1.249,4.463,2.499,6.665,3.867c2.142,1.25,4.225,2.499,6.248,3.869 c2.083,1.249,4.047,2.558,6.01,3.987c1.012,0.595,2.023,1.309,2.975,2.023c1.845,1.31,3.63,2.619,5.415,3.928 c1.845,1.368,3.63,2.797,5.415,4.225c1.012,0.774,2.023,1.547,2.975,2.381c1.666,1.368,3.332,2.797,4.939,4.225 c2.083,1.844,4.106,3.689,6.129,5.593c0,0.06,0.06,0.06,0.119,0.119c2.023,1.904,3.987,3.867,5.892,5.891 c1.904,1.964,3.808,3.986,5.594,6.07c1.606,1.785,3.154,3.57,4.641,5.415c3.035,3.75,5.951,7.617,8.688,11.545 c0.833,1.131,1.606,2.321,2.38,3.511c1.19,1.845,2.38,3.689,3.511,5.593c1.25,2.024,2.44,4.106,3.57,6.189 c0.179,0.357,0.417,0.774,0.595,1.131c1.19,2.142,2.261,4.344,3.332,6.546c3.63,7.617,6.605,15.472,8.926,23.505 c0.595,1.964,1.071,3.928,1.547,5.891c0.595,2.5,1.19,5.059,1.606,7.617c0.417,2.202,0.774,4.344,1.071,6.546 c0,0.118,0.06,0.238,0.06,0.297c0.119,0.952,0.238,1.844,0.298,2.797c0.238,1.964,0.476,3.987,0.595,5.951h-0.952 C505.454,237.493,512,244.099,512,252.192z"/> </g> </g> </g>

</svg>