<!DOCTYPE svg PUBLIC "-//W3C//DTD SVG 1.1//EN" "http://www.w3.org/Graphics/SVG/1.1/DTD/svg11.dtd">
<!-- Uploaded to: SVG Repo, www.svgrepo.com, Transformed by: SVG Repo Mixer Tools -->
<svg width="800px" height="800px" viewBox="0 0 32 32" xmlns="http://www.w3.org/2000/svg" fill="#000000">
<g id="SVGRepo_bgCarrier" stroke-width="0"/>
<g id="SVGRepo_tracerCarrier" stroke-linecap="round" stroke-linejoin="round"/>
<g id="SVGRepo_iconCarrier"> <defs> <style>.cls-1{fill:#1b793c;}</style> </defs> <title/> <g data-name="Layer 11" id="Layer_11"> <path class="cls-1" d="M30.71,15.29l-14-14a1,1,0,0,0-1.42,0l-14,14a1,1,0,0,0-.21,1.09A1,1,0,0,0,2,17H5V30a1,1,0,0,0,1,1h8a1,1,0,0,0,1-1V24h2v6a1,1,0,0,0,1,1h8a1,1,0,0,0,1-1V17h3a1,1,0,0,0,.92-.62A1,1,0,0,0,30.71,15.29Z"/> </g> </g>
</svg>